<?xml version="1.0" encoding="utf-8"?><svg version="1.1" id="Layer_1" xmlns="http://www.w3.org/2000/svg" x="0px" y="0px" viewBox="5.4 238.5 1194.2 523.8" enable-background="new 5.4 238.5 1194.2 523.8" xml:space="preserve"><path fill="#747373" d="M5.4,450.6c35,0,82.7-9,82.7-69.2V241.2h21.6v139.3c0,86.3-69.2,89-104.2,89C5.4,469.5,5.4,450.6,5.4,450.6z
	 M145.6,367c0-47.6,37.7-86.3,83.6-86.3s83.6,38.6,83.6,86.3c0,45.8-38.6,84.5-83.6,84.5C183.3,451.5,145.6,412.8,145.6,367
	 M332.4,367c0-58.4-45.8-105.1-103.3-105.1c-58.4,0-104.2,47.6-104.2,105.1c0,55.7,47.6,103.3,104.2,103.3S332.4,423.6,332.4,367
	 M341.4,410.1c1.8,35.9,33.2,60.2,81.8,60.2c45.8,0,83.6-26.1,83.6-59.3c0-16.2-9.9-33.2-27-43.1c-12.6-7.2-18.9-9-51.2-16.2
	c-40.4-8.1-58.4-17.1-58.4-35.9c0-19.8,25.2-35.9,51.2-35.9c27.9,0,52.1,14.4,53.9,36.8h24.3c0.9-30.5-32.3-54.8-74.6-54.8
	c-44.9,0-77.3,22.5-77.3,54.8c0,13.5,7.2,26.1,18.9,35.9c10.8,8.1,23.4,12.6,51.2,17.1c42.2,8.1,64.7,20.7,64.7,42.2
	s-28.8,40.4-58.4,40.4c-32.3,0-54.8-15.3-58.4-42.2L341.4,410.1L341.4,410.1z M704.4,355.3c-5.4-42.2-40.4-74.6-82.7-74.6
	c-42.2,0-77.3,32.3-82.7,74.6L704.4,355.3L704.4,355.3z M726,367c0,2.7,0,4.5,0,7.2H539.1c3.6,42.2,40.4,77.3,83.6,77.3
	c35.9,0,68.3-24.3,79.1-57.5h21.6c-11.7,44-53,77.3-100.6,77.3c-56.6,0-104.2-46.7-104.2-103.3c-0.9-58.4,45.8-106,103.3-106
	C679.3,261.9,726,308.6,726,367 M765.5,366.1c0-48.5,36.8-86.3,84.5-86.3c47.6,0,84.5,37.7,84.5,86.3s-36.8,86.3-84.5,86.3
	C803.3,452.4,765.5,414.6,765.5,366.1 M744.9,499.1h23.4v-66.5c0,0,25.2,36.8,81.8,36.8c69.2,0,106.9-53,106.9-103.3
	s-36.9-104.2-107-104.2c-68.3,0-105.1,53.9-105.1,104.2V499.1z M974.9,241.2v224.6h22.5V354.4c0-38.6,33.2-69.2,70.1-69.2
	c36.8,0,62,30.5,62,69.2v112.3h22.5V349.9c0-52.1-34.1-88.1-84.5-88.1c-56.6,0-71,43.1-71,43.1v-63.8h-21.6V241.2z M76.4,486.5
	v139.3c0,44-21.6,64.7-69.2,64.7H5.4v38.6h1.8c75.5,0,112.3-34.1,112.3-103.3V486.5H76.4z M232.7,689.6c35.9,0,64.7-30.5,64.7-67.4
	c0-37.7-28.8-68.3-64.7-68.3S168,584.5,168,622.2C168,659,196.8,689.6,232.7,689.6 M232.7,514.4c58.4,0,106,48.5,106,107.8
	s-47.6,106.9-105.1,106.9c-58.4,0-106-47.6-106-106.9C126.7,562.9,174.3,514.4,232.7,514.4 M347.7,572.8c0,17.1,9,32.3,24.3,43.1
	c11.7,9,18.9,10.8,59.3,21.6c29.7,8.1,42.2,16.2,42.2,28.8c0,14.4-21.6,24.3-41.3,24.3c-24.3,0-39.5-10.8-40.4-26.1v-1.8h-50.3v1.8
	c2.7,36.8,38.6,63.8,89,63.8c51.2,0,91.6-29.7,91.6-67.4c0-31.4-22.5-50.3-73.7-62.9c-38.6-9.9-52.1-15.3-52.1-27
	c0-11.7,17.1-18.9,34.1-18.9c15.3,0,33.2,8.1,35,21.6v0.9h49.4v-1.8c-1.8-34.1-37.7-59.3-83.6-59.3
	C385.5,514.4,347.7,541.3,347.7,572.8 M691.9,603.3c-8.1-29.7-33.2-49.4-62-49.4s-53.9,20.7-62,49.4H691.9z M629,514.4
	c58.4,0,106,48.5,106,107.8c0,6.3-0.9,12.6-1.8,18v0.9H567.9c8.1,28.8,33.2,48.5,62,48.5c22.5,0,43.1-11.7,54.8-31.4v-0.9h44.9
	l-0.9,1.8c-15.3,41.3-54.8,70.1-98.8,70.1c-58.4,0-106-47.6-106-106.9C523.8,562.9,570.6,514.4,629,514.4 M971.3,486.5v238.1h41.3
	V610.5c0-34.1,26.1-51.2,52.1-51.2c27,0,47.6,22.5,47.6,51.2v115h40.4V606.9c0-53.9-35.9-92.5-88.1-92.5c-18.9,0-37.7,8.1-52.1,21.6
	v-49.4h-41.2V486.5z M852.7,690.5c38.6,0,67.4-29.7,67.4-68.3s-28.8-68.3-67.4-68.3c-38.6,0-67.4,29.7-67.4,68.3
	S814,690.5,852.7,690.5 M852.7,514.4c71.9,0,110.5,55.7,110.5,107.8S924.6,730,852.7,730c-23.4,0-45.8-6.3-63.8-18.9v51.2H744v-141
	C743.1,569.2,781.7,514.4,852.7,514.4 M1172.6,288.9c11.7,0,21.6-9.9,21.6-22.5s-9.9-22.5-21.6-22.5c-12.6,0-22.5,9.9-22.5,22.5
	S1160,288.9,1172.6,288.9 M1172.6,238.5c14.4,0,27,12.6,27,27c0,15.3-11.7,27.9-27,27.9c-14.4,0-27-12.6-27-27.9
	C1145.6,251.1,1157.3,238.5,1172.6,238.5 M1170.8,264.6c6.3,0,7.2-2.7,7.2-4.5c0-0.9,0-2.7-1.8-3.6c-0.9-0.9-3.6-0.9-5.4-0.9h-3.6v9
	H1170.8 M1185.1,281.7h-6.3c0,0-0.9-0.9-0.9-3.6v-1.8v-0.9c0-1.8,0-2.7-0.9-3.6c-0.9-0.9-2.7-1.8-6.3-1.8h-3.6v11.7h-6.3v-31.4h10.8
	c4.5,0,6.3,0,8.1,0.9c2.7,1.8,4.5,4.5,4.5,8.1s-1.8,6.3-5.4,7.2c0,0,0.9,0,0.9,0.9c2.7,1.8,3.6,4.5,3.6,9c0,2.7,0,3.6,0.9,3.6
	L1185.1,281.7z"/></svg>