<svg width="143" height="25" viewBox="0 0 143 25" fill="none" xmlns="http://www.w3.org/2000/svg">
<g clip-path="url(#clip0)">
<path d="M3.01142 2.9134C2.89851 5.28456 2.84205 7.59927 2.72914 9.97043C2.72914 10.0833 2.7856 10.1963 2.72914 10.3656C2.72914 10.7608 2.95496 10.9302 3.2937 10.9867C3.46307 10.9867 3.63244 11.0431 3.85827 11.0996V11.6077H0.527344V11.156C0.640256 11.156 0.753172 11.0996 0.866085 11.0996C1.54356 10.9866 1.71293 10.8173 1.71293 10.1398C1.76939 8.72841 1.88229 7.37346 1.93875 5.96205C1.99521 4.72001 2.05167 3.53443 2.10812 2.29239C2.16458 1.50201 2.05166 1.44554 1.31773 1.33263C1.20482 1.33263 1.09191 1.27617 0.92254 1.27617V0.768066H1.71293C2.44686 0.768066 3.12433 0.768066 3.85827 0.768066C4.14055 0.768066 4.25346 0.824526 4.30992 1.10681C5.38259 3.47797 6.45525 5.84914 7.52792 8.2203C7.58438 8.33322 7.64084 8.44612 7.69729 8.61549C8.26186 7.31699 8.76997 6.13141 9.33453 4.88937C9.89909 3.64733 10.4072 2.40531 10.9718 1.16327C11.0847 0.937442 11.1976 0.82453 11.4234 0.880986C12.3832 0.880986 13.3429 0.880986 14.3591 0.880986V1.38909C14.1333 1.44555 13.9075 1.50199 13.6252 1.50199C13.23 1.55845 13.0606 1.78428 13.1171 2.17947C13.1736 3.59088 13.23 4.94583 13.3429 6.35724C13.3994 7.59927 13.4558 8.89777 13.5123 10.1398C13.5687 11.0431 13.6252 11.156 14.5285 11.2689C14.585 11.2689 14.6414 11.2689 14.7543 11.2689V11.777H10.2943V11.2689C10.5201 11.2125 10.6895 11.2125 10.9153 11.156C11.367 11.0431 11.4799 10.9302 11.4799 10.4221C11.4234 9.06714 11.367 7.76865 11.3105 6.41369C11.254 5.51039 11.1976 4.6071 11.1976 3.7038C11.1976 3.47797 11.1411 3.3086 11.0847 3.08278C11.0282 3.25215 10.9153 3.47797 10.8588 3.64734C9.72972 6.24433 8.60059 8.84131 7.47147 11.4383C7.41501 11.5512 7.3021 11.6641 7.18919 11.777C7.07627 11.6641 6.96336 11.5512 6.90691 11.4383C5.66487 8.7284 4.47929 6.07496 3.23725 3.36506C3.18079 3.25215 3.12433 3.13923 3.06788 3.02632C3.06788 2.91341 3.06788 2.9134 3.01142 2.9134Z" fill="white"/>
<path d="M100.398 5.84937C101.866 6.07519 102.713 6.92203 103.052 8.33344C103.221 8.898 103.391 9.46257 103.56 10.0271C103.729 10.6481 104.181 10.9869 104.802 11.0434C104.971 11.0434 105.141 11.0433 105.141 11.2692C105.141 11.495 105.028 11.5515 104.859 11.6079C104.181 11.8337 103.504 11.8337 102.826 11.6644C102.092 11.495 101.584 11.0433 101.302 10.3659C101.076 9.85776 100.963 9.34965 100.85 8.84154C100.794 8.67218 100.794 8.50281 100.737 8.33344C100.398 6.92203 99.7775 6.41393 98.3096 6.41393C97.9709 6.41393 97.6886 6.41393 97.2934 6.41393C97.2934 6.5833 97.2934 6.69622 97.2934 6.80913C97.2934 7.8818 97.2934 8.95446 97.2934 10.0271C97.2934 10.8175 97.3498 10.9304 98.1402 11.0434C98.2531 11.0434 98.3661 11.0998 98.479 11.0998V11.5515H94.0189V11.0434C94.1883 10.9869 94.4141 10.9869 94.5835 10.9304C95.0916 10.8175 95.2045 10.7046 95.2045 10.1965C95.2045 9.57549 95.2045 8.95446 95.2045 8.27698C95.2045 6.24455 95.2045 4.2686 95.2045 2.23617C95.2045 1.33287 95.148 1.27641 94.2447 1.10704C94.1883 1.10704 94.0754 1.10704 94.0189 1.05058V0.59894L94.0754 0.54248C96.1078 0.54248 98.1402 0.542484 100.173 0.59894C100.963 0.59894 101.697 0.824752 102.374 1.21995C103.786 2.12325 103.786 4.15568 102.374 5.00252C101.866 5.2848 101.302 5.39772 100.737 5.62355C100.624 5.84937 100.511 5.84937 100.398 5.84937ZM97.2934 5.62355C98.0273 5.62355 98.7048 5.68 99.3823 5.62355C100.455 5.51063 101.019 4.94607 101.189 3.98632C101.415 2.80074 100.963 1.89742 99.9468 1.55869C99.1564 1.27641 98.3661 1.33287 97.5757 1.38932C97.4628 1.38932 97.2934 1.61515 97.2934 1.72807C97.2934 2.9701 97.2934 4.2686 97.2934 5.62355Z" fill="white"/>
<path d="M32.8203 6.35747C32.8203 7.65597 32.8203 9.01092 32.8203 10.3094C32.8203 10.6481 32.9897 10.8175 33.3284 10.874C33.5542 10.9304 33.7801 10.9304 34.0623 10.9869V11.4385H29.6023V10.9869C29.7717 10.9304 29.941 10.9304 30.1104 10.874C30.675 10.7611 30.7879 10.6481 30.7879 10.0271C30.7879 7.9947 30.7879 5.96228 30.7879 3.92986C30.7879 3.30884 30.7879 2.68782 30.7879 2.01035C30.7879 1.33287 30.675 1.21996 30.0539 1.10704C29.8846 1.10704 29.7717 1.05058 29.6023 1.05058V0.59894C29.6588 0.59894 29.6588 0.54248 29.7152 0.54248C31.6912 0.54248 33.7236 0.542484 35.6996 0.59894C36.49 0.59894 37.2239 0.824752 37.9014 1.21995C39.3692 2.1797 39.3128 4.21214 37.8449 5.05898C37.3368 5.34126 36.7722 5.45418 36.2641 5.62355C36.1512 5.68 36.0383 5.67999 35.9254 5.73645C37.4497 5.90582 38.2966 6.80912 38.6353 8.27698C38.7482 8.72863 38.8611 9.1803 39.0305 9.63195C39.2563 10.4223 39.708 10.9304 40.6677 10.8175C40.7242 10.9869 40.7242 11.0998 40.7806 11.2127C39.4821 12.0031 37.4497 11.4385 36.8852 10.0271C36.6593 9.51902 36.5464 8.89801 36.4335 8.3899C36.3206 7.99471 36.2077 7.59951 36.0948 7.26078C35.8125 6.63976 35.3044 6.24457 34.6269 6.24457C33.9494 6.35748 33.4413 6.35747 32.8203 6.35747ZM32.8203 5.62355C33.5542 5.62355 34.2317 5.68 34.9092 5.62355C35.6996 5.56709 36.3206 5.22835 36.6029 4.43796C36.7722 3.92985 36.7722 3.36529 36.6593 2.80073C36.5464 2.23617 36.2077 1.84097 35.6996 1.61515C34.8527 1.21995 34.0059 1.33287 33.159 1.38932C33.0461 1.38932 32.8768 1.61515 32.8768 1.72807C32.8203 2.9701 32.8203 4.2686 32.8203 5.62355Z" fill="white"/>
<path d="M117.223 6.01878C117.223 9.18034 114.682 11.6644 111.351 11.6644C108.077 11.6644 105.48 9.18035 105.48 5.96234C105.48 2.80079 108.077 0.260254 111.295 0.260254C114.682 0.31671 117.223 2.80078 117.223 6.01878ZM107.738 5.68006C107.794 6.30108 107.851 6.92209 107.964 7.48665C108.246 8.72869 108.754 9.80135 109.883 10.5353C111.182 11.3257 113.045 10.9869 114.005 9.80136C114.626 9.06743 114.851 8.16413 114.908 7.26083C115.021 5.6236 114.851 3.98637 113.892 2.57496C112.706 0.768364 109.883 0.711901 108.585 2.46205C107.964 3.36535 107.794 4.49448 107.738 5.68006Z" fill="white"/>
<path d="M80.8646 6.01896C80.8646 2.91387 83.4616 0.316895 86.6796 0.316895C90.0105 0.316895 92.5511 2.80096 92.5511 6.13188C92.5511 9.23698 89.9541 11.7211 86.6796 11.7211C83.4052 11.7211 80.8646 9.23697 80.8646 6.01896ZM90.3493 6.63999C90.3493 4.77693 90.0105 3.59136 89.2766 2.51869C88.091 0.768541 85.3247 0.712075 84.0826 2.34931C83.5181 3.13969 83.2358 3.98654 83.1793 4.9463C83.0664 6.58353 83.2922 8.16431 84.1955 9.51926C85.4376 11.3259 88.2039 11.3259 89.446 9.63218C90.1799 8.67242 90.2928 7.59974 90.3493 6.63999Z" fill="white"/>
<path d="M118.521 1.16339V0.655273C119.368 0.655273 120.271 0.655273 121.118 0.655273C121.231 0.655273 121.344 0.7682 121.457 0.881112C123.602 3.19582 125.747 5.45406 127.836 7.76877C127.949 7.88168 128.006 7.93814 128.175 8.10751C128.175 7.9946 128.231 7.93814 128.231 7.82523C128.231 6.01863 128.231 4.15556 128.231 2.34896C128.231 1.38921 128.175 1.33275 127.215 1.21984C127.159 1.21984 127.046 1.21985 126.989 1.16339V0.655273H130.433V1.10693C130.207 1.16339 129.925 1.16338 129.699 1.21984C129.417 1.27629 129.248 1.38922 129.191 1.72796C129.191 1.95378 129.135 2.12314 129.135 2.34896C129.135 5.28469 129.135 8.27688 129.135 11.2126V11.6642C128.852 11.7772 128.683 11.6643 128.457 11.4949C126.086 8.8979 123.715 6.24446 121.344 3.64747C121.174 3.4781 121.062 3.30873 120.836 3.0829C120.836 3.19582 120.779 3.25227 120.779 3.30873C120.779 5.34115 120.779 7.43003 120.779 9.46246C120.779 9.51891 120.779 9.57538 120.779 9.63184C120.836 11.1562 120.892 10.8739 122.078 11.0997V11.5513H118.634V11.0432C118.803 11.0432 118.916 10.9868 119.029 10.9868C119.763 10.8739 119.819 10.8174 119.876 10.027C119.932 9.406 119.876 8.72853 119.876 8.10751C119.876 6.47028 119.876 4.8895 119.876 3.25227C119.876 2.85707 119.819 2.51833 119.707 2.12314C119.594 1.55858 119.142 1.27631 118.521 1.16339Z" fill="white"/>
<path d="M27.9651 10.9868V11.5513H23.3921V11.0997C23.6744 11.0432 23.9002 10.9868 24.1261 10.9303C24.4648 10.8739 24.5777 10.648 24.4648 10.3093C24.126 9.46246 23.7873 8.61561 23.4486 7.76877C23.3921 7.71231 23.2792 7.59941 23.2228 7.59941C22.0372 7.59941 20.8516 7.59941 19.666 7.59941C19.3837 8.33334 19.1014 9.06727 18.8192 9.8012C18.5369 10.7045 18.6498 10.8739 19.6095 10.9868C19.666 10.9868 19.666 10.9868 19.7225 10.9868V11.4949H16.3351V10.9868C17.2948 11.0997 17.6336 10.4222 17.9159 9.68828C19.1014 6.63964 20.287 3.64747 21.4726 0.59883C21.642 0.147179 21.8113 0.0342566 22.263 0.147169C22.3759 0.147169 22.4888 0.316538 22.5453 0.429451C23.7309 3.25227 24.86 6.13154 26.0456 8.95435C26.1585 9.23664 26.2714 9.51892 26.3843 9.8012C26.6666 10.5916 27.1182 11.0997 27.9651 10.9868ZM21.5291 2.96998C21.021 4.26848 20.5693 5.51052 20.1177 6.6961H23.0534C22.6017 5.45406 22.0936 4.26848 21.5291 2.96998Z" fill="white"/>
<path d="M60.4839 11.495V11.0434C60.7662 10.9869 61.0485 10.9304 61.2743 10.874C61.5566 10.8175 61.6695 10.5917 61.5566 10.3094C61.2178 9.46257 60.8791 8.55926 60.5404 7.71242C60.4839 7.65596 60.371 7.59952 60.2581 7.59952C59.1854 7.59952 58.1128 7.59952 56.9836 7.59952C56.8707 7.59952 56.7578 7.71242 56.7013 7.76888C56.4191 8.44635 56.1368 9.12383 55.911 9.80131C55.6287 10.6482 55.7416 10.874 56.6449 10.9869C56.7013 10.9869 56.7578 10.9869 56.8707 10.9869V11.495H53.4269V11.0434C53.4833 11.0434 53.4833 10.9869 53.4833 10.9869C54.2173 10.9869 54.6125 10.5917 54.8947 9.91423C56.0803 6.80913 57.3224 3.70403 58.5644 0.542481C58.6773 0.203743 58.8467 0.0908203 59.1854 0.0908203C59.4112 0.0908203 59.5242 0.203736 59.6371 0.429561C60.8791 3.53466 62.1776 6.58329 63.4196 9.68839C63.7019 10.4223 64.0407 11.0433 65.0004 10.9304V11.4385H60.4839V11.495ZM60.2016 6.69621C59.6935 5.45417 59.1854 4.26859 58.6773 2.97009C58.1692 4.26859 57.7176 5.45417 57.2659 6.69621H60.2016Z" fill="white"/>
<path d="M130.885 11.4949V11.0432C130.941 11.0432 130.941 10.9868 130.941 10.9868C131.732 10.9868 132.07 10.5351 132.353 9.85766C133.538 6.69611 134.78 3.59101 136.022 0.485914C136.135 0.260088 136.192 0.0907161 136.474 0.147172C136.7 0.147172 136.926 0.147176 137.039 0.485914C138.281 3.59101 139.579 6.69611 140.821 9.85766C141.103 10.5916 141.442 11.0997 142.346 11.0432V11.5513H137.829V11.0432C138.111 10.9868 138.337 10.9868 138.563 10.8739C138.902 10.761 139.015 10.5916 138.902 10.2528C138.563 9.406 138.224 8.61562 137.885 7.76877C137.829 7.71232 137.716 7.59941 137.603 7.59941C136.531 7.59941 135.458 7.59941 134.329 7.59941C134.216 7.59941 134.103 7.71232 134.046 7.76877C133.764 8.44625 133.482 9.18019 133.256 9.91412C133.03 10.7045 133.143 10.8739 133.99 10.9868C134.046 10.9868 134.159 10.9868 134.216 11.0432V11.5513L130.885 11.4949ZM137.49 6.69611C136.982 5.45407 136.474 4.26848 135.966 2.96999C135.458 4.26848 135.006 5.45407 134.555 6.69611H137.49Z" fill="white"/>
<path d="M78.7757 3.53444C78.437 3.64736 78.2111 3.53444 78.1547 3.1957C78.0982 3.08279 78.0418 2.96988 77.9853 2.91342C77.5901 1.89721 76.7997 1.33265 75.6706 1.21973C74.9367 1.10682 74.1463 1.10683 73.4123 1.33265C72.2832 1.67139 71.4928 2.40531 71.1541 3.47798C70.4766 5.51041 70.646 7.48639 71.888 9.29299C72.622 10.4221 73.8075 10.9302 75.1625 10.8738C75.7271 10.8738 76.2916 10.7044 76.7997 10.535C77.5901 10.2527 77.9853 9.51882 78.324 8.78489C78.437 8.44615 78.6628 8.33323 79.0015 8.44615C78.7757 9.29299 78.6063 10.1963 78.3805 11.0431C78.3805 11.0996 78.2676 11.2125 78.1547 11.2125C76.4045 11.7206 74.5979 11.9464 72.7913 11.3819C70.5331 10.7044 69.0088 9.29298 68.5571 6.86536C68.1619 4.55065 69.291 2.29241 71.4928 1.10683C72.622 0.485812 73.8075 0.20353 75.0496 0.259987C76.0658 0.316443 77.082 0.542261 78.0982 0.71163C78.2111 0.71163 78.3805 0.880999 78.3805 0.993912C78.5499 1.7843 78.6628 2.57469 78.7757 3.36508C78.8322 3.42154 78.7757 3.47799 78.7757 3.53444Z" fill="white"/>
<path d="M52.2978 8.50294C52.072 9.34979 51.9026 10.1966 51.6768 11.0435C51.6768 11.0999 51.5639 11.2128 51.5074 11.2128C49.2492 11.7774 46.9909 12.0597 44.8456 10.9306C41.7969 9.34978 40.8372 5.51076 42.8131 2.85731C44.1681 1.05071 46.0876 0.260325 48.2894 0.316781C49.3056 0.316781 50.3783 0.599053 51.3945 0.711965C51.6203 0.768421 51.6768 0.824881 51.7332 1.05071C51.8461 1.84109 52.0155 2.68793 52.1284 3.47832C51.7897 3.59123 51.5639 3.53478 51.451 3.19604C51.3945 3.08313 51.338 2.97022 51.2816 2.80085C50.8299 1.72819 49.9831 1.22008 48.9104 1.10717C48.4023 1.05071 47.8377 1.05071 47.3296 1.10717C45.6359 1.38945 44.6197 2.46211 44.281 4.09934C43.8858 5.9624 44.1116 7.71255 45.2408 9.23687C46.0311 10.3095 47.1603 10.8177 48.4588 10.7612C49.0233 10.7612 49.5879 10.6483 50.096 10.4225C50.9428 10.1402 51.2816 9.40623 51.6203 8.61585C51.7897 8.50293 51.9591 8.33357 52.2978 8.50294Z" fill="white"/>
<path d="M99.4952 24.5929H98.8177V23.5203H97.124C97.124 23.4073 97.124 23.3509 97.1805 23.238C97.745 22.4476 98.3096 21.6008 98.9306 20.8104C98.9306 20.7539 98.9871 20.7539 99.0435 20.7539C99.2129 20.7539 99.3258 20.7539 99.4952 20.7539H99.5517V23.1251H100.229V23.5203H99.5517V24.5929H99.4952ZM98.8177 21.4314C98.4225 21.996 98.0273 22.5605 97.6321 23.1815H98.8177V21.4314Z" fill="white"/>
<path d="M96.5031 21.3746C96.2208 21.3746 95.995 21.3746 95.7127 21.3746C95.4868 21.3746 95.2046 21.3746 94.9787 21.3746C94.8094 21.3746 94.64 21.4875 94.5836 21.6569C94.5836 21.6569 94.5836 21.7134 94.5271 21.7134C94.4706 21.8263 94.4706 21.8263 94.3577 21.8263H94.3013C94.3013 21.7134 94.3577 21.6004 94.3577 21.544C94.4142 21.3182 94.4706 21.0923 94.5271 20.8665C94.5271 20.8101 94.5271 20.8101 94.5836 20.8101C95.3739 20.8101 96.2208 20.8101 97.0112 20.8101C97.0112 20.8101 97.0112 20.8101 97.0676 20.8101C97.0676 20.8101 97.0676 20.8665 97.0112 20.8665C96.5595 21.6569 96.0514 22.4473 95.5998 23.2377C95.4304 23.5764 95.261 23.9152 95.0917 24.3104C95.0917 24.3668 95.0352 24.4233 95.0352 24.4797C94.9787 24.5926 94.9223 24.6491 94.8094 24.6491C94.6965 24.6491 94.5835 24.7055 94.4706 24.7055H94.4142C94.3577 24.7055 94.3577 24.6491 94.3577 24.5926C94.3577 24.5362 94.4142 24.4797 94.4142 24.4797C95.1481 23.4635 95.8256 22.4473 96.5031 21.3746C96.5031 21.4311 96.5031 21.4311 96.5031 21.3746Z" fill="white"/>
<path d="M102.6 24.4234V24.5928H101.132V24.4234C101.245 24.4234 101.302 24.4234 101.415 24.367C101.584 24.367 101.584 24.3105 101.584 24.1412V21.4313V21.3183H100.963V21.149C101.076 21.149 101.189 21.149 101.302 21.0925C101.415 21.0361 101.584 21.0361 101.697 20.9796C101.866 20.9231 101.979 20.8102 102.092 20.6409C102.149 20.5844 102.205 20.528 102.262 20.5844V20.6409V24.0283C102.262 24.1976 102.318 24.1976 102.431 24.2541C102.487 24.4234 102.544 24.4234 102.6 24.4234Z" fill="white"/>
<path d="M92.0994 21.4313H91.4784C91.4784 21.3749 91.4784 21.3184 91.4784 21.3184L91.5349 21.262C91.7042 21.2055 91.8736 21.2055 92.0994 21.1491C92.3252 21.0926 92.4946 20.9797 92.6075 20.8103C92.664 20.7539 92.7204 20.6974 92.7769 20.7539V20.8103V24.1977C92.7769 24.3106 92.8333 24.3671 92.9463 24.4235C93.0027 24.4235 93.0592 24.4235 93.1156 24.48V24.6493H91.6478V24.48C91.7607 24.48 91.8171 24.48 91.93 24.4235C92.0994 24.4235 92.0994 24.3671 92.0994 24.1977V21.4878V21.4313Z" fill="white"/>
<path d="M43.6035 23.9152L43.7729 23.5764H43.9422L43.7164 24.5362C43.4341 24.5926 42.9825 24.7055 42.5308 24.7055C41.2323 24.7055 40.3855 23.8022 40.3855 22.786C40.3855 21.7134 41.2888 20.8101 42.5873 20.8101C43.0954 20.8101 43.4906 20.923 43.7729 20.9794L43.9422 21.9392H43.7729L43.6035 21.6004C43.4341 21.2052 43.0389 21.0923 42.5873 21.0923C41.9098 21.0923 41.2323 21.4875 41.2323 22.6167C41.2323 23.6893 41.7969 24.4233 42.6438 24.4233C43.0389 24.3668 43.3777 24.2539 43.6035 23.9152Z" fill="white"/>
<path d="M45.8617 20.8667H47.386L47.499 21.8264H47.2731L47.1602 21.5442C46.9908 21.149 46.8779 21.0925 46.0875 21.0925H45.5794C45.523 21.0925 45.4665 21.149 45.4665 21.2054V22.5604H46.0311C46.3134 22.5604 46.4827 22.5039 46.5392 22.2216L46.5957 21.9958H46.765V23.4072H46.5957L46.5392 23.1814C46.4827 22.8427 46.3698 22.8427 46.0311 22.8427H45.4665V23.9153C45.4665 24.3105 45.523 24.3105 45.9182 24.3105H46.144C46.9908 24.3105 47.0473 24.2541 47.2731 23.8589L47.499 23.5201H47.6683L47.386 24.5364H44.3374V24.367H44.5068C44.6761 24.367 44.7326 24.3105 44.7326 24.0847V21.3183C44.7326 21.149 44.6761 21.0925 44.5068 21.0361H44.3374V20.8667C44.3374 20.8667 45.8617 20.8667 45.8617 20.8667Z" fill="white"/>
<path d="M49.7007 22.617C50.3782 22.617 50.5476 22.2783 50.5476 21.8831C50.5476 21.4314 50.3217 21.1492 49.7007 21.1492H49.5313C49.3055 21.1492 49.2491 21.1492 49.2491 21.2621V22.617C49.4184 22.617 49.4749 22.617 49.7007 22.617ZM50.4346 23.6332C50.3217 22.9558 49.983 22.8428 49.6443 22.8428H49.1926V24.1413C49.1926 24.3107 49.2491 24.3672 49.4184 24.4236H49.5878V24.593H48.0635V24.4236H48.2328C48.4022 24.4236 48.4587 24.3672 48.4587 24.1413V21.375C48.4587 21.2056 48.4022 21.1492 48.2328 21.0927H48.0635V20.9233H49.7007C50.6605 20.9233 51.2815 21.1492 51.2815 21.8266C51.2815 22.3347 50.8863 22.617 50.2088 22.7299C50.7169 22.7864 51.0557 23.0687 51.1686 23.5768L51.225 23.8591C51.3379 24.3672 51.5073 24.5365 51.846 24.4801V24.6494C51.6767 24.7059 51.5638 24.7624 51.3379 24.7624C50.9427 24.6494 50.5476 24.4801 50.4346 23.6332Z" fill="white"/>
<path d="M54.0479 22.9555L53.5398 21.657L53.0317 22.9555H54.0479ZM51.7897 24.4234H51.959C52.1284 24.4234 52.1849 24.3105 52.3542 23.8588L53.5963 20.6973H53.8786L55.29 24.0846C55.3464 24.254 55.4029 24.3669 55.6287 24.3669H55.7981V24.5363H54.2173V24.3669H54.3867C54.556 24.3669 54.6689 24.254 54.556 24.0846L54.2173 23.1814H52.9188L52.693 23.7459C52.5236 24.254 52.5801 24.3105 52.7494 24.3105H52.9188V24.4798H51.7897V24.4234Z" fill="white"/>
<path d="M56.7013 21.6008L56.6449 23.5768C56.5884 24.3107 56.5884 24.3672 56.8707 24.4236H57.0401V24.593H55.8545V24.4236H56.0239C56.2497 24.3672 56.2497 24.3672 56.3061 23.5768L56.4191 21.375C56.4191 21.2056 56.3626 21.1492 56.1932 21.0927H56.0239V20.9233H57.153L58.3386 23.5768L59.4677 20.9233H60.5968V21.0927H60.4275C60.2581 21.0927 60.2016 21.1492 60.2016 21.375L60.3145 24.1413C60.3145 24.3107 60.371 24.3672 60.5404 24.4236H60.7097V24.593H59.1854V24.4236H59.3548C59.5242 24.4236 59.5806 24.3672 59.5806 24.1413L59.4677 21.6008L58.1692 24.6494H58.0563L56.7013 21.6008Z" fill="white"/>
<path d="M61.3307 21.0927H61.1614V20.9233H62.6857V21.0927H62.5163C62.347 21.0927 62.2905 21.1492 62.2905 21.375V24.1413C62.2905 24.3107 62.347 24.3672 62.5163 24.4236H62.6857V24.593H61.1614V24.4236H61.3307C61.5001 24.4236 61.5566 24.3672 61.5566 24.1413V21.375C61.613 21.1492 61.5566 21.0927 61.3307 21.0927Z" fill="white"/>
<path d="M66.4118 23.9152L66.5812 23.5764H66.7505L66.5247 24.5362C66.2424 24.5926 65.7908 24.7055 65.3391 24.7055C64.0406 24.7055 63.1373 23.8022 63.1373 22.786C63.1373 21.7134 64.0406 20.8101 65.3391 20.8101C65.8472 20.8101 66.2424 20.923 66.5247 20.9794L66.6941 21.9392H66.5247L66.3553 21.6004C66.186 21.2052 65.7908 21.0923 65.3391 21.0923C64.6616 21.0923 63.9842 21.4875 63.9842 22.6167C63.9842 23.6893 64.5487 24.4233 65.3956 24.4233C65.8472 24.3668 66.186 24.2539 66.4118 23.9152Z" fill="white"/>
<path d="M68.7266 24.593H67.2023V24.4236H67.3716C67.541 24.4236 67.5975 24.3672 67.5975 24.1413V21.375C67.5975 21.2056 67.541 21.1492 67.3716 21.0927H67.2023V20.9233H68.7266V21.0927H68.5572C68.3879 21.0927 68.3314 21.1492 68.3314 21.375V22.617H70.138V21.375C70.138 21.2056 70.0815 21.1492 69.9122 21.0927H69.7428V20.9233H71.2671V21.0927H71.0978C70.9284 21.0927 70.8719 21.1492 70.8719 21.375V24.1413C70.8719 24.3107 70.9284 24.3672 71.0978 24.4236H71.2671V24.593H69.7428V24.4236H69.9122C70.0815 24.4236 70.138 24.3672 70.138 24.1413V22.8428H68.3314V24.0849C68.3314 24.2542 68.3879 24.3107 68.5572 24.3672H68.7266V24.593Z" fill="white"/>
<path d="M73.2995 20.8667H74.8239L74.9368 21.8264H74.7674L74.6545 21.5442C74.4851 21.149 74.3722 21.0925 73.5818 21.0925H73.0737C73.0172 21.0925 72.9608 21.149 72.9608 21.2054V22.5604H73.5254C73.8076 22.5604 73.977 22.5039 74.0335 22.2216L74.0899 21.9958H74.2593V23.4072H74.0899L74.0335 23.1814C73.977 22.8427 73.8641 22.8427 73.5254 22.8427H72.9608V23.9153C72.9608 24.3105 73.0172 24.3105 73.4124 24.3105H73.6383C74.4851 24.3105 74.5416 24.2541 74.7674 23.8589L74.9932 23.5201H75.1626L74.8803 24.5364H71.8317V24.367H72.001C72.1704 24.367 72.2269 24.3105 72.2269 24.0847V21.3183C72.2269 21.149 72.1704 21.0925 72.001 21.0361H71.8317V20.8667C71.8317 20.8667 73.2995 20.8667 73.2995 20.8667Z" fill="white"/>
<path d="M79.4532 24.367C80.3001 24.367 80.9211 23.9718 80.9211 22.8427C80.9211 21.6571 80.4694 21.0925 79.3968 21.0925C79.058 21.0925 79.0016 21.0925 79.0016 21.2054V23.9718C79.0016 24.2541 79.058 24.3105 79.3968 24.3105H79.4532V24.367ZM79.4532 20.8667C80.7517 20.8667 81.7115 21.5442 81.7115 22.6733C81.7115 23.8589 80.7517 24.5928 79.4532 24.5928H77.8724V24.4234H78.0418C78.2112 24.4234 78.2676 24.367 78.2676 24.1412V21.3748C78.2676 21.2054 78.2112 21.149 78.0418 21.0925H77.8724V20.9232H79.4532V20.8667Z" fill="white"/>
<path d="M83.9697 22.9555L83.4616 21.657L82.9535 22.9555H83.9697ZM81.7114 24.4234H81.8808C82.0502 24.4234 82.1066 24.3105 82.276 23.8588L83.518 20.6973H83.8003L85.2117 24.0846C85.2682 24.254 85.3246 24.3669 85.5504 24.3669H85.7198V24.5363H84.139V24.3669H84.3084C84.4778 24.3669 84.5907 24.254 84.4778 24.0846L84.139 23.1814H82.8405L82.6147 23.7459C82.4454 24.254 82.5018 24.3105 82.6712 24.3105H82.8405V24.4798H81.7114V24.4234Z" fill="white"/>
</g>
<defs>
<clipPath id="clip0">
<rect x="0.527344" y="0.0908203" width="141.818" height="24.6714" fill="white"/>
</clipPath>
</defs>
</svg>
