<svg width="44" height="44" viewBox="0 0 44 44" fill="none" xmlns="http://www.w3.org/2000/svg">
<path d="M1.50826 19.0011C1.23197 18.9671 0.97978 19.1635 0.952214 19.4405C0.535758 23.6256 1.35132 27.8453 3.3042 31.5785C5.33504 35.4606 8.49957 38.6325 12.377 40.6724C16.2543 42.7123 20.6609 43.5235 25.0105 42.9982C29.3601 42.4728 33.4468 40.6357 36.727 37.7313C40.0071 34.8269 42.3254 30.9927 43.3735 26.7387C44.4216 22.4846 44.1499 18.0123 42.5944 13.9165C41.0389 9.82065 38.2735 6.29538 34.6657 3.80949C31.1965 1.41902 27.1065 0.0985863 22.9018 0.00530897C22.6235 -0.000865186 22.398 0.22569 22.3984 0.504073C22.3987 0.782457 22.6247 1.00722 22.903 1.01371C26.903 1.10703 30.7931 2.3653 34.0937 4.63962C37.5329 7.00937 40.1692 10.3699 41.652 14.2744C43.1348 18.1789 43.3938 22.4422 42.3947 26.4975C41.3956 30.5528 39.1856 34.2078 36.0587 36.9765C32.9317 39.7453 29.036 41.4965 24.8896 41.9973C20.7432 42.4981 16.5426 41.7248 12.8463 39.7803C9.1501 37.8357 6.13343 34.8119 4.19748 31.1112C2.33949 27.5594 1.56143 23.5456 1.95306 19.5638C1.98031 19.2868 1.78456 19.0352 1.50826 19.0011Z" fill="#FF0000"/>
<path d="M20.1936 18.5823L23.1882 21.5769L20.1936 24.5781L21.1155 25.5L25.0386 21.5769L21.1155 17.6538L20.1936 18.5823Z" fill="#FFF1F1"/>
</svg>
